<mxfile host="app.diagrams.net" modified="2024-07-23T13:39:51.921Z" agent="Mozilla/5.0 (Windows NT 10.0; Win64; x64) AppleWebKit/537.36 (KHTML, like Gecko) Chrome/126.0.0.0 Safari/537.36" etag="J_6-owf30agEXzdWrnkW" version="24.7.2" type="device">
  <diagram name="Page-1" id="0783ab3e-0a74-02c8-0abd-f7b4e66b4bec">
    <mxGraphModel dx="1744" dy="931" grid="1" gridSize="10" guides="1" tooltips="1" connect="1" arrows="1" fold="1" page="1" pageScale="1" pageWidth="850" pageHeight="1100" background="none" math="0" shadow="0">
      <root>
        <mxCell id="0" />
        <mxCell id="1" parent="0" />
        <mxCell id="1c1d494c118603dd-1" value="Activity Diagram" style="swimlane;html=1;childLayout=stackLayout;startSize=20;rounded=0;shadow=0;comic=0;labelBackgroundColor=none;strokeWidth=1;fontFamily=Verdana;fontSize=12;align=center;" parent="1" vertex="1">
          <mxGeometry x="40" y="20" width="715.71" height="1150" as="geometry" />
        </mxCell>
        <mxCell id="1c1d494c118603dd-2" value="Admin" style="swimlane;html=1;startSize=20;" parent="1c1d494c118603dd-1" vertex="1">
          <mxGeometry y="20" width="320" height="1130" as="geometry" />
        </mxCell>
        <mxCell id="Rxr6hjut75NhFScURJZj-2" value="" style="shape=waypoint;sketch=0;fillStyle=solid;size=6;pointerEvents=1;points=[];fillColor=none;resizable=0;rotatable=0;perimeter=centerPerimeter;snapToPoint=1;strokeWidth=15;fontStyle=0" parent="1c1d494c118603dd-2" vertex="1">
          <mxGeometry x="115" y="35" width="20" height="20" as="geometry" />
        </mxCell>
        <mxCell id="Rxr6hjut75NhFScURJZj-5" value="" style="endArrow=classic;html=1;rounded=0;entryX=0.5;entryY=0;entryDx=0;entryDy=0;exitX=0.45;exitY=1.3;exitDx=0;exitDy=0;exitPerimeter=0;strokeWidth=2;fontStyle=0" parent="1c1d494c118603dd-2" source="Rxr6hjut75NhFScURJZj-2" edge="1">
          <mxGeometry width="50" height="50" relative="1" as="geometry">
            <mxPoint x="240" y="360" as="sourcePoint" />
            <mxPoint x="125" y="90" as="targetPoint" />
          </mxGeometry>
        </mxCell>
        <mxCell id="7YNYrMvz5-aDHtMyL3fj-38" value="Buka Aplikasi" style="rounded=1;whiteSpace=wrap;html=1;" parent="1c1d494c118603dd-2" vertex="1">
          <mxGeometry x="80.25" y="90" width="90.75" height="30" as="geometry" />
        </mxCell>
        <mxCell id="7YNYrMvz5-aDHtMyL3fj-40" value="Input Username dan Passowrd" style="rounded=1;whiteSpace=wrap;html=1;" parent="1c1d494c118603dd-2" vertex="1">
          <mxGeometry x="79.88" y="175" width="91.5" height="30" as="geometry" />
        </mxCell>
        <mxCell id="7YNYrMvz5-aDHtMyL3fj-44" value="" style="whiteSpace=wrap;html=1;rounded=0;shadow=0;comic=0;labelBackgroundColor=none;strokeWidth=1;fillColor=#000000;fontFamily=Verdana;fontSize=12;align=center;rotation=90;" parent="1c1d494c118603dd-2" vertex="1">
          <mxGeometry x="-50" y="370" width="151.5" height="10" as="geometry" />
        </mxCell>
        <mxCell id="7YNYrMvz5-aDHtMyL3fj-45" value="Memilih Menu Data Kriteria" style="rounded=1;whiteSpace=wrap;html=1;" parent="1c1d494c118603dd-2" vertex="1">
          <mxGeometry x="60" y="300" width="180" height="30" as="geometry" />
        </mxCell>
        <mxCell id="7YNYrMvz5-aDHtMyL3fj-53" value="Memilih Menu Sub Kriteria" style="rounded=1;whiteSpace=wrap;html=1;" parent="1c1d494c118603dd-2" vertex="1">
          <mxGeometry x="60" y="340" width="180" height="30" as="geometry" />
        </mxCell>
        <mxCell id="7YNYrMvz5-aDHtMyL3fj-54" value="Memilih Menu Data Alternatif" style="rounded=1;whiteSpace=wrap;html=1;" parent="1c1d494c118603dd-2" vertex="1">
          <mxGeometry x="60" y="380" width="180" height="30" as="geometry" />
        </mxCell>
        <mxCell id="7YNYrMvz5-aDHtMyL3fj-55" value="Memilih Menu Data Penilaian" style="rounded=1;whiteSpace=wrap;html=1;" parent="1c1d494c118603dd-2" vertex="1">
          <mxGeometry x="60" y="420" width="180" height="30" as="geometry" />
        </mxCell>
        <mxCell id="7YNYrMvz5-aDHtMyL3fj-58" value="" style="endArrow=classic;html=1;rounded=0;entryX=0;entryY=0.5;entryDx=0;entryDy=0;exitX=0.106;exitY=0.148;exitDx=0;exitDy=0;exitPerimeter=0;" parent="1c1d494c118603dd-2" source="7YNYrMvz5-aDHtMyL3fj-44" target="7YNYrMvz5-aDHtMyL3fj-45" edge="1">
          <mxGeometry width="50" height="50" relative="1" as="geometry">
            <mxPoint x="30" y="315" as="sourcePoint" />
            <mxPoint x="400" y="380" as="targetPoint" />
          </mxGeometry>
        </mxCell>
        <mxCell id="7YNYrMvz5-aDHtMyL3fj-60" value="" style="endArrow=classic;html=1;rounded=0;entryX=0;entryY=0.5;entryDx=0;entryDy=0;exitX=0.106;exitY=0.148;exitDx=0;exitDy=0;exitPerimeter=0;" parent="1c1d494c118603dd-2" edge="1">
          <mxGeometry width="50" height="50" relative="1" as="geometry">
            <mxPoint x="29" y="354.89" as="sourcePoint" />
            <mxPoint x="60" y="354.89" as="targetPoint" />
          </mxGeometry>
        </mxCell>
        <mxCell id="7YNYrMvz5-aDHtMyL3fj-61" value="" style="endArrow=classic;html=1;rounded=0;entryX=0;entryY=0.5;entryDx=0;entryDy=0;exitX=0.106;exitY=0.148;exitDx=0;exitDy=0;exitPerimeter=0;" parent="1c1d494c118603dd-2" edge="1">
          <mxGeometry width="50" height="50" relative="1" as="geometry">
            <mxPoint x="29" y="394.89" as="sourcePoint" />
            <mxPoint x="60" y="394.89" as="targetPoint" />
          </mxGeometry>
        </mxCell>
        <mxCell id="7YNYrMvz5-aDHtMyL3fj-62" value="" style="endArrow=classic;html=1;rounded=0;entryX=0;entryY=0.5;entryDx=0;entryDy=0;exitX=0.106;exitY=0.148;exitDx=0;exitDy=0;exitPerimeter=0;" parent="1c1d494c118603dd-2" edge="1">
          <mxGeometry width="50" height="50" relative="1" as="geometry">
            <mxPoint x="29" y="434.89" as="sourcePoint" />
            <mxPoint x="60" y="434.89" as="targetPoint" />
          </mxGeometry>
        </mxCell>
        <mxCell id="7YNYrMvz5-aDHtMyL3fj-56" value="Memilih Menu Data Perhitungan" style="rounded=1;whiteSpace=wrap;html=1;" parent="1c1d494c118603dd-2" vertex="1">
          <mxGeometry x="60" y="460" width="180" height="30" as="geometry" />
        </mxCell>
        <mxCell id="7YNYrMvz5-aDHtMyL3fj-57" value="Memilih Menu Hasil Akhir" style="rounded=1;whiteSpace=wrap;html=1;" parent="1c1d494c118603dd-2" vertex="1">
          <mxGeometry x="60" y="500" width="180" height="30" as="geometry" />
        </mxCell>
        <mxCell id="7YNYrMvz5-aDHtMyL3fj-95" value="" style="whiteSpace=wrap;html=1;rounded=0;shadow=0;comic=0;labelBackgroundColor=none;strokeWidth=1;fillColor=#000000;fontFamily=Verdana;fontSize=12;align=center;rotation=90;" parent="1c1d494c118603dd-2" vertex="1">
          <mxGeometry x="-50" y="450" width="151.5" height="10" as="geometry" />
        </mxCell>
        <mxCell id="7YNYrMvz5-aDHtMyL3fj-96" value="" style="endArrow=classic;html=1;rounded=0;entryX=0;entryY=0.5;entryDx=0;entryDy=0;exitX=0.106;exitY=0.148;exitDx=0;exitDy=0;exitPerimeter=0;" parent="1c1d494c118603dd-2" edge="1">
          <mxGeometry width="50" height="50" relative="1" as="geometry">
            <mxPoint x="29" y="474.81" as="sourcePoint" />
            <mxPoint x="60" y="474.81" as="targetPoint" />
          </mxGeometry>
        </mxCell>
        <mxCell id="7YNYrMvz5-aDHtMyL3fj-97" value="" style="endArrow=classic;html=1;rounded=0;entryX=0;entryY=0.5;entryDx=0;entryDy=0;exitX=0.106;exitY=0.148;exitDx=0;exitDy=0;exitPerimeter=0;" parent="1c1d494c118603dd-2" edge="1">
          <mxGeometry width="50" height="50" relative="1" as="geometry">
            <mxPoint x="29" y="514.81" as="sourcePoint" />
            <mxPoint x="60" y="514.81" as="targetPoint" />
          </mxGeometry>
        </mxCell>
        <mxCell id="7YNYrMvz5-aDHtMyL3fj-141" value="" style="whiteSpace=wrap;html=1;rounded=0;shadow=0;comic=0;labelBackgroundColor=none;strokeWidth=1;fillColor=#000000;fontFamily=Verdana;fontSize=12;align=center;rotation=90;" parent="1c1d494c118603dd-2" vertex="1">
          <mxGeometry x="202.75" y="651.25" width="110" height="10" as="geometry" />
        </mxCell>
        <mxCell id="7YNYrMvz5-aDHtMyL3fj-142" value="Menambah Data Sub Kriteria" style="rounded=1;whiteSpace=wrap;html=1;" parent="1c1d494c118603dd-2" vertex="1">
          <mxGeometry x="42" y="602" width="180" height="30" as="geometry" />
        </mxCell>
        <mxCell id="7YNYrMvz5-aDHtMyL3fj-143" value="Mengupdate Data Sub Kriteria" style="rounded=1;whiteSpace=wrap;html=1;" parent="1c1d494c118603dd-2" vertex="1">
          <mxGeometry x="42" y="642" width="180" height="30" as="geometry" />
        </mxCell>
        <mxCell id="7YNYrMvz5-aDHtMyL3fj-144" value="Menghapus Data Sub Kriteria" style="rounded=1;whiteSpace=wrap;html=1;" parent="1c1d494c118603dd-2" vertex="1">
          <mxGeometry x="42" y="682" width="180" height="30" as="geometry" />
        </mxCell>
        <mxCell id="7YNYrMvz5-aDHtMyL3fj-146" value="" style="endArrow=classic;html=1;rounded=0;entryX=1;entryY=0.5;entryDx=0;entryDy=0;exitX=0.106;exitY=0.148;exitDx=0;exitDy=0;exitPerimeter=0;strokeWidth=2;" parent="1c1d494c118603dd-2" target="7YNYrMvz5-aDHtMyL3fj-142" edge="1">
          <mxGeometry width="50" height="50" relative="1" as="geometry">
            <mxPoint x="222" y="616.77" as="sourcePoint" />
            <mxPoint x="253" y="616.77" as="targetPoint" />
            <Array as="points">
              <mxPoint x="262" y="617" />
            </Array>
          </mxGeometry>
        </mxCell>
        <mxCell id="7YNYrMvz5-aDHtMyL3fj-147" value="" style="endArrow=classic;html=1;rounded=0;entryX=1;entryY=0.5;entryDx=0;entryDy=0;exitX=0.106;exitY=0.148;exitDx=0;exitDy=0;exitPerimeter=0;strokeWidth=2;" parent="1c1d494c118603dd-2" edge="1">
          <mxGeometry width="50" height="50" relative="1" as="geometry">
            <mxPoint x="222" y="656.77" as="sourcePoint" />
            <mxPoint x="222" y="657" as="targetPoint" />
            <Array as="points">
              <mxPoint x="262" y="657" />
            </Array>
          </mxGeometry>
        </mxCell>
        <mxCell id="7YNYrMvz5-aDHtMyL3fj-148" value="" style="endArrow=classic;html=1;rounded=0;entryX=1;entryY=0.5;entryDx=0;entryDy=0;exitX=0.106;exitY=0.148;exitDx=0;exitDy=0;exitPerimeter=0;strokeWidth=2;" parent="1c1d494c118603dd-2" edge="1">
          <mxGeometry width="50" height="50" relative="1" as="geometry">
            <mxPoint x="222" y="696.77" as="sourcePoint" />
            <mxPoint x="222" y="697" as="targetPoint" />
            <Array as="points">
              <mxPoint x="262" y="697" />
            </Array>
          </mxGeometry>
        </mxCell>
        <mxCell id="7YNYrMvz5-aDHtMyL3fj-151" value="" style="endArrow=classic;html=1;rounded=0;exitX=0.5;exitY=0;exitDx=0;exitDy=0;strokeWidth=2;edgeStyle=orthogonalEdgeStyle;" parent="1c1d494c118603dd-2" source="Iz28Yb_D8OkvVmoog1za-15" edge="1">
          <mxGeometry width="50" height="50" relative="1" as="geometry">
            <mxPoint x="280" y="357" as="sourcePoint" />
            <mxPoint x="260" y="657" as="targetPoint" />
            <Array as="points">
              <mxPoint x="340" y="355" />
              <mxPoint x="340" y="657" />
            </Array>
          </mxGeometry>
        </mxCell>
        <mxCell id="7YNYrMvz5-aDHtMyL3fj-171" value="Menambah Data Penilaian" style="rounded=1;whiteSpace=wrap;html=1;" parent="1c1d494c118603dd-2" vertex="1">
          <mxGeometry x="41.99999999999999" y="810" width="180" height="30" as="geometry" />
        </mxCell>
        <mxCell id="7YNYrMvz5-aDHtMyL3fj-172" value="Mengupdate Data Penilaian" style="rounded=1;whiteSpace=wrap;html=1;" parent="1c1d494c118603dd-2" vertex="1">
          <mxGeometry x="42.38" y="850" width="180" height="30" as="geometry" />
        </mxCell>
        <mxCell id="7YNYrMvz5-aDHtMyL3fj-173" value="" style="whiteSpace=wrap;html=1;rounded=0;shadow=0;comic=0;labelBackgroundColor=none;strokeWidth=1;fillColor=#000000;fontFamily=Verdana;fontSize=12;align=center;rotation=90;" parent="1c1d494c118603dd-2" vertex="1">
          <mxGeometry x="223.13" y="839.63" width="69.25" height="10" as="geometry" />
        </mxCell>
        <mxCell id="7YNYrMvz5-aDHtMyL3fj-174" value="" style="endArrow=classic;html=1;rounded=0;entryX=1;entryY=0.5;entryDx=0;entryDy=0;exitX=0.106;exitY=0.148;exitDx=0;exitDy=0;exitPerimeter=0;strokeWidth=2;" parent="1c1d494c118603dd-2" edge="1">
          <mxGeometry width="50" height="50" relative="1" as="geometry">
            <mxPoint x="222" y="824.79" as="sourcePoint" />
            <mxPoint x="222" y="825.02" as="targetPoint" />
            <Array as="points">
              <mxPoint x="262" y="825.02" />
            </Array>
          </mxGeometry>
        </mxCell>
        <mxCell id="7YNYrMvz5-aDHtMyL3fj-175" value="" style="endArrow=classic;html=1;rounded=0;entryX=1;entryY=0.5;entryDx=0;entryDy=0;exitX=0.106;exitY=0.148;exitDx=0;exitDy=0;exitPerimeter=0;strokeWidth=2;" parent="1c1d494c118603dd-2" edge="1">
          <mxGeometry width="50" height="50" relative="1" as="geometry">
            <mxPoint x="222.38" y="864.79" as="sourcePoint" />
            <mxPoint x="222.38" y="865.02" as="targetPoint" />
            <Array as="points">
              <mxPoint x="262.38" y="865.02" />
            </Array>
          </mxGeometry>
        </mxCell>
        <mxCell id="7YNYrMvz5-aDHtMyL3fj-176" value="" style="endArrow=classic;html=1;rounded=0;entryX=0.5;entryY=0;entryDx=0;entryDy=0;exitX=1;exitY=0.5;exitDx=0;exitDy=0;edgeStyle=orthogonalEdgeStyle;strokeWidth=2;" parent="1c1d494c118603dd-2" source="7YNYrMvz5-aDHtMyL3fj-55" target="7YNYrMvz5-aDHtMyL3fj-173" edge="1">
          <mxGeometry width="50" height="50" relative="1" as="geometry">
            <mxPoint x="280" y="640" as="sourcePoint" />
            <mxPoint x="330" y="590" as="targetPoint" />
            <Array as="points">
              <mxPoint x="350" y="435" />
              <mxPoint x="350" y="845" />
            </Array>
          </mxGeometry>
        </mxCell>
        <mxCell id="Iz28Yb_D8OkvVmoog1za-15" value="" style="whiteSpace=wrap;html=1;rounded=0;shadow=0;comic=0;labelBackgroundColor=none;strokeWidth=1;fillColor=#000000;fontFamily=Verdana;fontSize=12;align=center;rotation=90;" vertex="1" parent="1c1d494c118603dd-2">
          <mxGeometry x="220" y="350" width="110" height="10" as="geometry" />
        </mxCell>
        <mxCell id="Iz28Yb_D8OkvVmoog1za-21" value="" style="endArrow=classic;html=1;rounded=0;exitX=1;exitY=0.5;exitDx=0;exitDy=0;entryX=0.133;entryY=1.005;entryDx=0;entryDy=0;entryPerimeter=0;" edge="1" parent="1c1d494c118603dd-2" source="7YNYrMvz5-aDHtMyL3fj-45" target="Iz28Yb_D8OkvVmoog1za-15">
          <mxGeometry width="50" height="50" relative="1" as="geometry">
            <mxPoint x="340" y="500" as="sourcePoint" />
            <mxPoint x="390" y="450" as="targetPoint" />
          </mxGeometry>
        </mxCell>
        <mxCell id="Iz28Yb_D8OkvVmoog1za-20" value="" style="endArrow=classic;html=1;rounded=0;exitX=1;exitY=0.5;exitDx=0;exitDy=0;entryX=0.5;entryY=1;entryDx=0;entryDy=0;" edge="1" parent="1c1d494c118603dd-2" source="7YNYrMvz5-aDHtMyL3fj-53" target="Iz28Yb_D8OkvVmoog1za-15">
          <mxGeometry width="50" height="50" relative="1" as="geometry">
            <mxPoint x="340" y="500" as="sourcePoint" />
            <mxPoint x="390" y="450" as="targetPoint" />
          </mxGeometry>
        </mxCell>
        <mxCell id="Iz28Yb_D8OkvVmoog1za-19" value="" style="endArrow=classic;html=1;rounded=0;exitX=1;exitY=0.5;exitDx=0;exitDy=0;entryX=0.86;entryY=0.981;entryDx=0;entryDy=0;entryPerimeter=0;" edge="1" parent="1c1d494c118603dd-2" source="7YNYrMvz5-aDHtMyL3fj-54" target="Iz28Yb_D8OkvVmoog1za-15">
          <mxGeometry width="50" height="50" relative="1" as="geometry">
            <mxPoint x="340" y="500" as="sourcePoint" />
            <mxPoint x="390" y="450" as="targetPoint" />
          </mxGeometry>
        </mxCell>
        <mxCell id="Rxr6hjut75NhFScURJZj-6" value="" style="endArrow=classic;html=1;rounded=0;entryX=0;entryY=0.5;entryDx=0;entryDy=0;strokeWidth=2;fontStyle=0;exitX=1;exitY=0.5;exitDx=0;exitDy=0;" parent="1c1d494c118603dd-1" source="7YNYrMvz5-aDHtMyL3fj-38" target="7YNYrMvz5-aDHtMyL3fj-39" edge="1">
          <mxGeometry width="50" height="50" relative="1" as="geometry">
            <mxPoint x="170" y="125" as="sourcePoint" />
            <mxPoint x="350" y="125" as="targetPoint" />
          </mxGeometry>
        </mxCell>
        <mxCell id="Rxr6hjut75NhFScURJZj-11" value="" style="endArrow=classic;html=1;rounded=0;entryX=0;entryY=0.5;entryDx=0;entryDy=0;strokeWidth=2;fontStyle=0;exitX=1;exitY=0.5;exitDx=0;exitDy=0;" parent="1c1d494c118603dd-1" source="7YNYrMvz5-aDHtMyL3fj-40" target="Rxr6hjut75NhFScURJZj-7" edge="1">
          <mxGeometry width="50" height="50" relative="1" as="geometry">
            <mxPoint x="180" y="210" as="sourcePoint" />
            <mxPoint x="203" y="250" as="targetPoint" />
          </mxGeometry>
        </mxCell>
        <mxCell id="7YNYrMvz5-aDHtMyL3fj-43" value="" style="endArrow=classic;html=1;rounded=0;entryX=0.5;entryY=0;entryDx=0;entryDy=0;exitX=0.5;exitY=1;exitDx=0;exitDy=0;edgeStyle=orthogonalEdgeStyle;strokeWidth=2;" parent="1c1d494c118603dd-1" source="7YNYrMvz5-aDHtMyL3fj-39" target="7YNYrMvz5-aDHtMyL3fj-40" edge="1">
          <mxGeometry width="50" height="50" relative="1" as="geometry">
            <mxPoint x="270" y="200" as="sourcePoint" />
            <mxPoint x="320" y="150" as="targetPoint" />
            <Array as="points">
              <mxPoint x="500" y="160" />
              <mxPoint x="126" y="160" />
            </Array>
          </mxGeometry>
        </mxCell>
        <mxCell id="7YNYrMvz5-aDHtMyL3fj-65" value="" style="endArrow=classic;html=1;rounded=0;edgeStyle=orthogonalEdgeStyle;strokeWidth=2;" parent="1c1d494c118603dd-1" source="7YNYrMvz5-aDHtMyL3fj-42" edge="1">
          <mxGeometry width="50" height="50" relative="1" as="geometry">
            <mxPoint x="530" y="330" as="sourcePoint" />
            <mxPoint x="21" y="456" as="targetPoint" />
            <Array as="points">
              <mxPoint x="509" y="359" />
              <mxPoint x="300" y="359" />
              <mxPoint x="300" y="269" />
              <mxPoint x="-9" y="269" />
              <mxPoint x="-9" y="456" />
            </Array>
          </mxGeometry>
        </mxCell>
        <mxCell id="7YNYrMvz5-aDHtMyL3fj-154" value="" style="endArrow=classic;html=1;rounded=0;exitX=0;exitY=0.5;exitDx=0;exitDy=0;strokeWidth=2;edgeStyle=orthogonalEdgeStyle;entryX=0.5;entryY=1;entryDx=0;entryDy=0;" parent="1c1d494c118603dd-1" source="7YNYrMvz5-aDHtMyL3fj-144" target="7YNYrMvz5-aDHtMyL3fj-150" edge="1">
          <mxGeometry width="50" height="50" relative="1" as="geometry">
            <mxPoint x="140" y="662" as="sourcePoint" />
            <mxPoint x="510" y="700" as="targetPoint" />
            <Array as="points">
              <mxPoint x="20" y="717" />
              <mxPoint x="20" y="752" />
              <mxPoint x="514" y="752" />
            </Array>
          </mxGeometry>
        </mxCell>
        <mxCell id="7YNYrMvz5-aDHtMyL3fj-156" value="" style="endArrow=classic;html=1;rounded=0;entryX=0;entryY=0.5;entryDx=0;entryDy=0;exitX=0;exitY=0.5;exitDx=0;exitDy=0;strokeWidth=2;edgeStyle=orthogonalEdgeStyle;" parent="1c1d494c118603dd-1" source="7YNYrMvz5-aDHtMyL3fj-143" target="7YNYrMvz5-aDHtMyL3fj-150" edge="1">
          <mxGeometry width="50" height="50" relative="1" as="geometry">
            <mxPoint x="210" y="622" as="sourcePoint" />
            <mxPoint x="260" y="572" as="targetPoint" />
            <Array as="points">
              <mxPoint x="20" y="677" />
              <mxPoint x="20" y="752" />
              <mxPoint x="400" y="752" />
              <mxPoint x="400" y="677" />
            </Array>
          </mxGeometry>
        </mxCell>
        <mxCell id="7YNYrMvz5-aDHtMyL3fj-157" value="" style="endArrow=classic;html=1;rounded=0;entryX=1;entryY=0.5;entryDx=0;entryDy=0;exitX=0;exitY=0.5;exitDx=0;exitDy=0;strokeWidth=2;edgeStyle=orthogonalEdgeStyle;" parent="1c1d494c118603dd-1" source="7YNYrMvz5-aDHtMyL3fj-142" target="7YNYrMvz5-aDHtMyL3fj-150" edge="1">
          <mxGeometry width="50" height="50" relative="1" as="geometry">
            <mxPoint x="110" y="582" as="sourcePoint" />
            <mxPoint x="160" y="532" as="targetPoint" />
            <Array as="points">
              <mxPoint x="20" y="637" />
              <mxPoint x="20" y="752" />
              <mxPoint x="610" y="752" />
              <mxPoint x="610" y="677" />
            </Array>
          </mxGeometry>
        </mxCell>
        <mxCell id="7YNYrMvz5-aDHtMyL3fj-178" value="" style="endArrow=classic;html=1;rounded=0;entryX=0;entryY=0.5;entryDx=0;entryDy=0;exitX=0;exitY=0.5;exitDx=0;exitDy=0;strokeWidth=2;edgeStyle=orthogonalEdgeStyle;" parent="1c1d494c118603dd-1" source="7YNYrMvz5-aDHtMyL3fj-171" target="7YNYrMvz5-aDHtMyL3fj-177" edge="1">
          <mxGeometry width="50" height="50" relative="1" as="geometry">
            <mxPoint x="280" y="870" as="sourcePoint" />
            <mxPoint x="330" y="820" as="targetPoint" />
            <Array as="points">
              <mxPoint x="20" y="845" />
              <mxPoint x="20" y="920" />
              <mxPoint x="400" y="920" />
              <mxPoint x="400" y="865" />
            </Array>
          </mxGeometry>
        </mxCell>
        <mxCell id="7YNYrMvz5-aDHtMyL3fj-179" value="" style="endArrow=classic;html=1;rounded=0;entryX=1;entryY=0.5;entryDx=0;entryDy=0;exitX=0;exitY=0.5;exitDx=0;exitDy=0;strokeWidth=2;edgeStyle=orthogonalEdgeStyle;" parent="1c1d494c118603dd-1" source="7YNYrMvz5-aDHtMyL3fj-172" target="7YNYrMvz5-aDHtMyL3fj-177" edge="1">
          <mxGeometry width="50" height="50" relative="1" as="geometry">
            <mxPoint x="280" y="870" as="sourcePoint" />
            <mxPoint x="330" y="820" as="targetPoint" />
            <Array as="points">
              <mxPoint x="20" y="885" />
              <mxPoint x="20" y="920" />
              <mxPoint x="610" y="920" />
              <mxPoint x="610" y="865" />
            </Array>
          </mxGeometry>
        </mxCell>
        <mxCell id="7YNYrMvz5-aDHtMyL3fj-181" value="" style="endArrow=classic;html=1;rounded=0;entryX=0;entryY=0.5;entryDx=0;entryDy=0;exitX=1;exitY=0.5;exitDx=0;exitDy=0;edgeStyle=orthogonalEdgeStyle;strokeWidth=2;" parent="1c1d494c118603dd-1" source="7YNYrMvz5-aDHtMyL3fj-56" target="7YNYrMvz5-aDHtMyL3fj-180" edge="1">
          <mxGeometry width="50" height="50" relative="1" as="geometry">
            <mxPoint x="280" y="760" as="sourcePoint" />
            <mxPoint x="330" y="710" as="targetPoint" />
            <Array as="points">
              <mxPoint x="360" y="495" />
              <mxPoint x="360" y="967" />
            </Array>
          </mxGeometry>
        </mxCell>
        <mxCell id="7YNYrMvz5-aDHtMyL3fj-184" value="" style="endArrow=classic;html=1;rounded=0;exitX=1;exitY=0.5;exitDx=0;exitDy=0;entryX=0;entryY=0.5;entryDx=0;entryDy=0;strokeWidth=2;edgeStyle=orthogonalEdgeStyle;" parent="1c1d494c118603dd-1" source="7YNYrMvz5-aDHtMyL3fj-57" target="7YNYrMvz5-aDHtMyL3fj-182" edge="1">
          <mxGeometry width="50" height="50" relative="1" as="geometry">
            <mxPoint x="280" y="760" as="sourcePoint" />
            <mxPoint x="330" y="710" as="targetPoint" />
            <Array as="points">
              <mxPoint x="370" y="535" />
              <mxPoint x="370" y="1028" />
            </Array>
          </mxGeometry>
        </mxCell>
        <mxCell id="1c1d494c118603dd-3" value="Sistem" style="swimlane;html=1;startSize=20;" parent="1c1d494c118603dd-1" vertex="1">
          <mxGeometry x="320" y="20" width="395.71" height="1130" as="geometry" />
        </mxCell>
        <mxCell id="Rxr6hjut75NhFScURJZj-7" value="Valid ?" style="rhombus;whiteSpace=wrap;html=1;fontStyle=0" parent="1c1d494c118603dd-3" vertex="1">
          <mxGeometry x="148.5" y="150" width="80" height="80" as="geometry" />
        </mxCell>
        <mxCell id="Rxr6hjut75NhFScURJZj-10" value="" style="endArrow=classic;html=1;rounded=0;entryX=1;entryY=0.5;entryDx=0;entryDy=0;exitX=1;exitY=0.5;exitDx=0;exitDy=0;edgeStyle=orthogonalEdgeStyle;fontStyle=1;strokeWidth=2;" parent="1c1d494c118603dd-3" source="Rxr6hjut75NhFScURJZj-7" target="7YNYrMvz5-aDHtMyL3fj-39" edge="1">
          <mxGeometry width="50" height="50" relative="1" as="geometry">
            <mxPoint x="-1.7500000000000009" y="280" as="sourcePoint" />
            <mxPoint x="233.25" y="105" as="targetPoint" />
            <Array as="points">
              <mxPoint x="287.75" y="190" />
              <mxPoint x="287.75" y="105" />
            </Array>
          </mxGeometry>
        </mxCell>
        <mxCell id="Rxr6hjut75NhFScURJZj-13" value="" style="endArrow=classic;html=1;rounded=0;entryX=0.5;entryY=0;entryDx=0;entryDy=0;exitX=0.5;exitY=1;exitDx=0;exitDy=0;strokeWidth=2;fontStyle=0" parent="1c1d494c118603dd-3" edge="1">
          <mxGeometry width="50" height="50" relative="1" as="geometry">
            <mxPoint x="188.5" y="231" as="sourcePoint" />
            <mxPoint x="188.5" y="261" as="targetPoint" />
          </mxGeometry>
        </mxCell>
        <mxCell id="Rxr6hjut75NhFScURJZj-14" value="&lt;font style=&quot;font-size: 10px;&quot;&gt;T&lt;/font&gt;" style="text;html=1;strokeColor=none;fillColor=none;align=center;verticalAlign=middle;whiteSpace=wrap;rounded=0;fontStyle=0" parent="1c1d494c118603dd-3" vertex="1">
          <mxGeometry x="185.25" y="231" width="30" height="10" as="geometry" />
        </mxCell>
        <mxCell id="Rxr6hjut75NhFScURJZj-16" value="&lt;font style=&quot;font-size: 10px;&quot;&gt;F&lt;/font&gt;" style="text;html=1;strokeColor=none;fillColor=none;align=center;verticalAlign=middle;whiteSpace=wrap;rounded=0;fontStyle=0" parent="1c1d494c118603dd-3" vertex="1">
          <mxGeometry x="220.25" y="176" width="30" height="10" as="geometry" />
        </mxCell>
        <mxCell id="7YNYrMvz5-aDHtMyL3fj-39" value="Menampilkan Form Login" style="rounded=1;whiteSpace=wrap;html=1;" parent="1c1d494c118603dd-3" vertex="1">
          <mxGeometry x="142.75" y="90" width="91.5" height="30" as="geometry" />
        </mxCell>
        <mxCell id="7YNYrMvz5-aDHtMyL3fj-42" value="Menampilan Menu Utama" style="rounded=1;whiteSpace=wrap;html=1;" parent="1c1d494c118603dd-3" vertex="1">
          <mxGeometry x="119.5" y="261" width="140" height="30" as="geometry" />
        </mxCell>
        <mxCell id="7YNYrMvz5-aDHtMyL3fj-150" value="Menyimpan &amp;amp; Menampilkan Data Sub Kriteria" style="rounded=1;whiteSpace=wrap;html=1;" parent="1c1d494c118603dd-3" vertex="1">
          <mxGeometry x="118.5" y="642" width="151.5" height="30" as="geometry" />
        </mxCell>
        <mxCell id="7YNYrMvz5-aDHtMyL3fj-177" value="Menyimpan Data Penilaian" style="rounded=1;whiteSpace=wrap;html=1;" parent="1c1d494c118603dd-3" vertex="1">
          <mxGeometry x="118.5" y="830" width="140" height="30" as="geometry" />
        </mxCell>
        <mxCell id="7YNYrMvz5-aDHtMyL3fj-180" value="Menampilkan Proses Perhitungan Detail ARAS" style="rounded=1;whiteSpace=wrap;html=1;" parent="1c1d494c118603dd-3" vertex="1">
          <mxGeometry x="111.38000000000001" y="932" width="165.75" height="30" as="geometry" />
        </mxCell>
        <mxCell id="7YNYrMvz5-aDHtMyL3fj-182" value="Menampilkan Hasil Akhir Perangkingan&amp;nbsp;" style="rounded=1;whiteSpace=wrap;html=1;" parent="1c1d494c118603dd-3" vertex="1">
          <mxGeometry x="111.38000000000002" y="993" width="165.75" height="30" as="geometry" />
        </mxCell>
        <mxCell id="7YNYrMvz5-aDHtMyL3fj-183" value="" style="verticalLabelPosition=bottom;html=1;verticalAlign=top;strokeWidth=2;shape=mxgraph.lean_mapping.sequenced_pull_ball;" parent="1c1d494c118603dd-3" vertex="1">
          <mxGeometry x="177.06999999999994" y="1067" width="34.37" height="35" as="geometry" />
        </mxCell>
        <mxCell id="7YNYrMvz5-aDHtMyL3fj-187" value="" style="endArrow=classic;html=1;rounded=0;entryX=0.5;entryY=0;entryDx=0;entryDy=0;exitX=0.5;exitY=1;exitDx=0;exitDy=0;strokeWidth=2;" parent="1c1d494c118603dd-3" source="7YNYrMvz5-aDHtMyL3fj-182" target="7YNYrMvz5-aDHtMyL3fj-183" edge="1">
          <mxGeometry width="50" height="50" relative="1" as="geometry">
            <mxPoint x="-31.5" y="970" as="sourcePoint" />
            <mxPoint x="18.5" y="920" as="targetPoint" />
          </mxGeometry>
        </mxCell>
      </root>
    </mxGraphModel>
  </diagram>
</mxfile>
